<svg xmlns="http://www.w3.org/2000/svg" viewBox="0 0 1000 1000" fill="#cc0033" fill-rule="evenodd"><path d="M438.3 999.2C435.1 997.2 434.9 984.7 435.4 744.5C435.6 612.5 435.8 503.1 435.8 501.5C435.9 491.5 435.1 475.5 434.6 475.2C434.3 475.1 428.8 477.4 422.5 480.5C416.2 483.5 410.7 486 410.4 486C410.1 486 408.4 486.6 406.7 487.4C391.4 494.1 362.5 500.9 340.5 503C335 503.6 328 504.5 324.9 505C317.7 506.3 243.3 506.3 236.1 505C233 504.5 224.7 503.6 217.5 503C152.5 498 98.9 478.5 56.4 444.5C33.9 426.4 17.3 405.4 10 385.5C9.6 384.4 8.8 382.4 8.2 381C4.7 372.4 3.4 365.9 1.8 349.5C0.5 335.5 0.5 332.2 1.8 317C3.6 296.9 5.8 286.2 10.1 277.8C10.6 276.8 11 275.5 11 274.9C11 272.7 16.4 262.5 22.5 253C41.4 224 70.4 202.2 115.5 183.5C121.6 180.9 145.9 173 147.6 173C148.4 173 149.8 172.6 150.8 172C154.7 169.8 187.9 163.8 208.5 161.5C210.7 161.3 224 160.5 238.2 159.9C270.4 158.3 309 159.7 336.5 163.4C359.4 166.5 386.5 173 401.5 179C412.8 183.4 422.6 187.8 427.9 190.6C431.4 192.5 434.4 193.9 434.6 193.7C434.9 193.5 435 150.3 435 97.7C435 4 435 2.1 436.9 1C439.2 -0.2 559.8 -0.4 561.7 0.8C565 2.9 565.1 13.1 564.6 255C564.4 387.3 564.2 496.9 564.2 498.5C564.1 506 564.8 524.5 565.1 524.9C565.3 525.1 570.4 522.9 576.4 520.1C602.1 507.7 630.6 499.8 659.5 497C665 496.4 672 495.5 675.1 495C682.3 493.7 756.7 493.7 763.9 495C767 495.5 775.4 496.4 782.5 497C847.5 502 901.1 521.5 943.6 555.5C966.1 573.6 982.7 594.6 990 614.5C990.4 615.6 991.2 617.6 991.8 619C995.3 627.6 996.6 634.1 998.2 650.5C999.5 664.5 999.5 667.8 998.2 683C996.4 703.1 994.2 713.8 989.9 722.2C989.4 723.2 989 724.5 989 725.1C989 729.5 974.4 753 965.4 763.1C945.5 785.4 915.7 804.7 880.5 818C877.2 819.2 873.6 820.6 872.5 821.1C870.5 821.8 863.5 824.1 861.5 824.6C861 824.8 858 825.6 855 826.5C842.3 830.3 823.6 834.1 806 836.6C790.3 838.7 789.6 838.8 761.8 840.1C729.6 841.7 691 840.3 663.5 836.6C640.6 833.5 613.5 827 598.5 821C587.2 816.6 577.4 812.2 572.1 809.4C568.6 807.5 565.6 806.1 565.4 806.3C565.1 806.5 565 849.7 565 902.3C565 996 565 997.9 563.1 999C560.8 1000.2 440.2 1000.4 438.3 999.2ZM749.9 771.7C755.7 770.8 761.7 769.6 763.4 769.1C793.9 759.7 807.9 753.5 821.6 743.1C833.7 734.1 844.8 720.9 849.7 710C855.4 697.1 856.8 692.9 858.1 683.4C860.1 669.4 858.8 643.5 855.9 640.5C855.4 640 855 639 855 638.3C855 636.3 848.2 622.4 844.2 616.1C836.5 604.1 819.9 589.4 804 580.8C787.1 571.5 765.8 564.8 744 561.9C731.4 560.2 709.4 559.7 702 560.9C698.4 561.4 691.7 562.4 687 562.9C670.4 564.9 652.2 569.4 640.3 574.6C638.6 575.4 636.9 576 636.5 576C634.7 576 614.7 586.8 608.4 591.1C590.8 603.3 576.4 620.8 571 636.5C570.6 637.6 569.8 639.6 569.2 641C568 643.8 567.4 646.6 565.9 655.5C564.7 662.1 565.6 681 567.1 682.5C567.6 683 568 684.4 568 685.7C568 687 568.4 688.8 568.9 689.8C569.4 690.7 570.2 692.6 570.8 694C576.3 707.6 586.7 722.1 597.9 731.7C621.3 751.7 650.7 765.2 683 770.6C687.7 771.4 693.5 772.4 696 772.9C703.6 774.4 738.3 773.6 749.9 771.7ZM298.9 439C302 438.5 308.3 437.6 313 437.1C329.4 435.2 347.7 430.6 359.7 425.4C361.4 424.6 363.1 424 363.5 424C365.3 424 385.3 413.2 391.6 408.9C409.3 396.6 423.1 379.9 429.2 363.2C429.6 362 430.4 360 430.9 358.8C432 356.2 432.7 352.8 434 344.8C434.5 341.7 435 338.8 435.2 338.3C435.7 336.3 433.7 317.9 432.9 317.4C432.4 317.1 432 315.8 432 314.4C432 313.1 431.6 311.2 431.1 310.2C430.6 309.3 429.8 307.4 429.2 306C423.7 292.4 413.3 277.9 402.1 268.3C386.6 255.1 366.4 243.6 347 237C333 232.2 328.7 231.3 302 226.9C288.5 224.7 249 227.1 236.6 230.9C206.1 240.3 192.1 246.5 178.4 256.9C166.3 265.9 155.2 279.1 150.3 290C144.6 302.9 143.2 307.1 141.9 316.6C139.9 330.6 141.2 356.5 144.1 359.4C144.6 360 145 361 145 361.7C145 363.8 151.4 376.9 155.5 383.5C160.2 390.9 175.4 406.2 183.5 411.6C204.7 425.8 230.2 435 256.4 438C261.3 438.5 265.5 439.2 265.8 439.5C266.7 440.4 293.2 440 298.9 439Z"/></svg>